<svg xmlns="http://www.w3.org/2000/svg" viewBox="0 0 920 480" preserveAspectRatio="xMidYMid meet">
<rect width="100%" height="100%" fill="#fffaf1" rx="24" />
<text x="70" y="36" font-size="24" fill="#1f1a17" font-family="PingFang SC, Microsoft YaHei, sans-serif">停车经营分析结果</text>
<line x1="70" y1="60.0" x2="890" y2="60.0" stroke="#e8dccd" stroke-width="1"/>
<text x="16" y="64.0" font-size="12" fill="#665c54">6217.0</text>
<line x1="70" y1="150.0" x2="890" y2="150.0" stroke="#e8dccd" stroke-width="1"/>
<text x="16" y="154.0" font-size="12" fill="#665c54">4662.75</text>
<line x1="70" y1="240.0" x2="890" y2="240.0" stroke="#e8dccd" stroke-width="1"/>
<text x="16" y="244.0" font-size="12" fill="#665c54">3108.5</text>
<line x1="70" y1="330.0" x2="890" y2="330.0" stroke="#e8dccd" stroke-width="1"/>
<text x="16" y="334.0" font-size="12" fill="#665c54">1554.25</text>
<line x1="70" y1="420.0" x2="890" y2="420.0" stroke="#e8dccd" stroke-width="1"/>
<text x="16" y="424.0" font-size="12" fill="#665c54">0.0</text>
<line x1="70.0" y1="60" x2="70.0" y2="420" stroke="#f1e6d8" stroke-width="1"/>
<text x="70.0" y="458" text-anchor="middle" font-size="12" fill="#665c54">2026-03-06</text>
<line x1="480.0" y1="60" x2="480.0" y2="420" stroke="#f1e6d8" stroke-width="1"/>
<text x="480.0" y="458" text-anchor="middle" font-size="12" fill="#665c54">2026-03-07</text>
<line x1="890.0" y1="60" x2="890.0" y2="420" stroke="#f1e6d8" stroke-width="1"/>
<text x="890.0" y="458" text-anchor="middle" font-size="12" fill="#665c54">2026-03-08</text>
<polyline fill="none" stroke="#b54d2e" stroke-width="3" points="70.0,60.0 480.0,103.37140099726554 890.0,121.26427537397456" />
<circle cx="70.0" cy="60.0" r="4.5" fill="#b54d2e" />
<text x="70.0" y="50.0" text-anchor="middle" font-size="11" fill="#b54d2e">6217</text>
<circle cx="480.0" cy="103.37140099726554" r="4.5" fill="#b54d2e" />
<text x="480.0" y="93.37140099726554" text-anchor="middle" font-size="11" fill="#b54d2e">5468</text>
<circle cx="890.0" cy="121.26427537397456" r="4.5" fill="#b54d2e" />
<text x="890.0" y="111.26427537397456" text-anchor="middle" font-size="11" fill="#b54d2e">5159</text>
<rect x="770" y="18" width="14" height="14" rx="3" fill="#b54d2e" />
<text x="790" y="30" font-size="12" fill="#1f1a17">B停车场</text>
</svg>