<svg xmlns="http://www.w3.org/2000/svg" width="920" height="480" viewBox="0 0 920 480">
<rect width="100%" height="100%" fill="#fffaf1" rx="24" />
<text x="70" y="36" font-size="24" fill="#1f1a17" font-family="PingFang SC, Microsoft YaHei, sans-serif">智能问数结果</text>
<line x1="70" y1="60.0" x2="890" y2="60.0" stroke="#e8dccd" stroke-width="1"/>
<text x="16" y="64.0" font-size="12" fill="#665c54">9199.0</text>
<line x1="70" y1="150.0" x2="890" y2="150.0" stroke="#e8dccd" stroke-width="1"/>
<text x="16" y="154.0" font-size="12" fill="#665c54">6899.25</text>
<line x1="70" y1="240.0" x2="890" y2="240.0" stroke="#e8dccd" stroke-width="1"/>
<text x="16" y="244.0" font-size="12" fill="#665c54">4599.5</text>
<line x1="70" y1="330.0" x2="890" y2="330.0" stroke="#e8dccd" stroke-width="1"/>
<text x="16" y="334.0" font-size="12" fill="#665c54">2299.75</text>
<line x1="70" y1="420.0" x2="890" y2="420.0" stroke="#e8dccd" stroke-width="1"/>
<text x="16" y="424.0" font-size="12" fill="#665c54">0.0</text>
<line x1="70.0" y1="60" x2="70.0" y2="420" stroke="#f1e6d8" stroke-width="1"/>
<text x="70.0" y="458" text-anchor="middle" font-size="12" fill="#665c54">2026-02-08</text>
<line x1="99.28571428571428" y1="60" x2="99.28571428571428" y2="420" stroke="#f1e6d8" stroke-width="1"/>
<text x="99.28571428571428" y="458" text-anchor="middle" font-size="12" fill="#665c54">2026-02-09</text>
<line x1="128.57142857142856" y1="60" x2="128.57142857142856" y2="420" stroke="#f1e6d8" stroke-width="1"/>
<text x="128.57142857142856" y="458" text-anchor="middle" font-size="12" fill="#665c54">2026-02-10</text>
<line x1="157.85714285714286" y1="60" x2="157.85714285714286" y2="420" stroke="#f1e6d8" stroke-width="1"/>
<text x="157.85714285714286" y="458" text-anchor="middle" font-size="12" fill="#665c54">2026-02-11</text>
<line x1="187.14285714285714" y1="60" x2="187.14285714285714" y2="420" stroke="#f1e6d8" stroke-width="1"/>
<text x="187.14285714285714" y="458" text-anchor="middle" font-size="12" fill="#665c54">2026-02-12</text>
<line x1="216.42857142857142" y1="60" x2="216.42857142857142" y2="420" stroke="#f1e6d8" stroke-width="1"/>
<text x="216.42857142857142" y="458" text-anchor="middle" font-size="12" fill="#665c54">2026-02-13</text>
<line x1="245.71428571428572" y1="60" x2="245.71428571428572" y2="420" stroke="#f1e6d8" stroke-width="1"/>
<text x="245.71428571428572" y="458" text-anchor="middle" font-size="12" fill="#665c54">2026-02-14</text>
<line x1="275.0" y1="60" x2="275.0" y2="420" stroke="#f1e6d8" stroke-width="1"/>
<text x="275.0" y="458" text-anchor="middle" font-size="12" fill="#665c54">2026-02-15</text>
<line x1="304.2857142857143" y1="60" x2="304.2857142857143" y2="420" stroke="#f1e6d8" stroke-width="1"/>
<text x="304.2857142857143" y="458" text-anchor="middle" font-size="12" fill="#665c54">2026-02-16</text>
<line x1="333.57142857142856" y1="60" x2="333.57142857142856" y2="420" stroke="#f1e6d8" stroke-width="1"/>
<text x="333.57142857142856" y="458" text-anchor="middle" font-size="12" fill="#665c54">2026-02-17</text>
<line x1="362.85714285714283" y1="60" x2="362.85714285714283" y2="420" stroke="#f1e6d8" stroke-width="1"/>
<text x="362.85714285714283" y="458" text-anchor="middle" font-size="12" fill="#665c54">2026-02-18</text>
<line x1="392.14285714285717" y1="60" x2="392.14285714285717" y2="420" stroke="#f1e6d8" stroke-width="1"/>
<text x="392.14285714285717" y="458" text-anchor="middle" font-size="12" fill="#665c54">2026-02-19</text>
<line x1="421.42857142857144" y1="60" x2="421.42857142857144" y2="420" stroke="#f1e6d8" stroke-width="1"/>
<text x="421.42857142857144" y="458" text-anchor="middle" font-size="12" fill="#665c54">2026-02-20</text>
<line x1="450.7142857142857" y1="60" x2="450.7142857142857" y2="420" stroke="#f1e6d8" stroke-width="1"/>
<text x="450.7142857142857" y="458" text-anchor="middle" font-size="12" fill="#665c54">2026-02-21</text>
<line x1="480.0" y1="60" x2="480.0" y2="420" stroke="#f1e6d8" stroke-width="1"/>
<text x="480.0" y="458" text-anchor="middle" font-size="12" fill="#665c54">2026-02-22</text>
<line x1="509.2857142857143" y1="60" x2="509.2857142857143" y2="420" stroke="#f1e6d8" stroke-width="1"/>
<text x="509.2857142857143" y="458" text-anchor="middle" font-size="12" fill="#665c54">2026-02-23</text>
<line x1="538.5714285714286" y1="60" x2="538.5714285714286" y2="420" stroke="#f1e6d8" stroke-width="1"/>
<text x="538.5714285714286" y="458" text-anchor="middle" font-size="12" fill="#665c54">2026-02-24</text>
<line x1="567.8571428571429" y1="60" x2="567.8571428571429" y2="420" stroke="#f1e6d8" stroke-width="1"/>
<text x="567.8571428571429" y="458" text-anchor="middle" font-size="12" fill="#665c54">2026-02-25</text>
<line x1="597.1428571428571" y1="60" x2="597.1428571428571" y2="420" stroke="#f1e6d8" stroke-width="1"/>
<text x="597.1428571428571" y="458" text-anchor="middle" font-size="12" fill="#665c54">2026-02-26</text>
<line x1="626.4285714285714" y1="60" x2="626.4285714285714" y2="420" stroke="#f1e6d8" stroke-width="1"/>
<text x="626.4285714285714" y="458" text-anchor="middle" font-size="12" fill="#665c54">2026-02-27</text>
<line x1="655.7142857142857" y1="60" x2="655.7142857142857" y2="420" stroke="#f1e6d8" stroke-width="1"/>
<text x="655.7142857142857" y="458" text-anchor="middle" font-size="12" fill="#665c54">2026-02-28</text>
<line x1="685.0" y1="60" x2="685.0" y2="420" stroke="#f1e6d8" stroke-width="1"/>
<text x="685.0" y="458" text-anchor="middle" font-size="12" fill="#665c54">2026-03-01</text>
<line x1="714.2857142857143" y1="60" x2="714.2857142857143" y2="420" stroke="#f1e6d8" stroke-width="1"/>
<text x="714.2857142857143" y="458" text-anchor="middle" font-size="12" fill="#665c54">2026-03-02</text>
<line x1="743.5714285714286" y1="60" x2="743.5714285714286" y2="420" stroke="#f1e6d8" stroke-width="1"/>
<text x="743.5714285714286" y="458" text-anchor="middle" font-size="12" fill="#665c54">2026-03-03</text>
<line x1="772.8571428571429" y1="60" x2="772.8571428571429" y2="420" stroke="#f1e6d8" stroke-width="1"/>
<text x="772.8571428571429" y="458" text-anchor="middle" font-size="12" fill="#665c54">2026-03-04</text>
<line x1="802.1428571428571" y1="60" x2="802.1428571428571" y2="420" stroke="#f1e6d8" stroke-width="1"/>
<text x="802.1428571428571" y="458" text-anchor="middle" font-size="12" fill="#665c54">2026-03-05</text>
<line x1="831.4285714285714" y1="60" x2="831.4285714285714" y2="420" stroke="#f1e6d8" stroke-width="1"/>
<text x="831.4285714285714" y="458" text-anchor="middle" font-size="12" fill="#665c54">2026-03-06</text>
<line x1="860.7142857142857" y1="60" x2="860.7142857142857" y2="420" stroke="#f1e6d8" stroke-width="1"/>
<text x="860.7142857142857" y="458" text-anchor="middle" font-size="12" fill="#665c54">2026-03-07</text>
<line x1="890.0" y1="60" x2="890.0" y2="420" stroke="#f1e6d8" stroke-width="1"/>
<text x="890.0" y="458" text-anchor="middle" font-size="12" fill="#665c54">2026-03-08</text>
<polyline fill="none" stroke="#b54d2e" stroke-width="3" points="70.0,95.69083596043049 99.28571428571428,127.31166431133818 128.57142857142856,130.87292096967064 157.85714285714286,122.14588542232849 187.14285714285714,91.6990977280139 216.42857142857142,125.78541145776711 245.71428571428572,60.0 275.0,61.17404065659309 304.2857142857143,138.2302424176541 333.57142857142856,120.07174692901401 362.85714285714283,130.5598434612458 392.14285714285717,148.79660832699204 421.42857142857144,121.71540384824436 450.7142857142857,71.11425154908142 480.0,83.05033155777807 509.2857142857143,102.03065550603327 538.5714285714286,121.71540384824436 567.8571428571429,111.1881726274595 597.1428571428571,90.4467876943146 626.4285714285714,101.71757799760843 655.7142857142857,87.78562887270357 685.0,68.21828459615176 714.2857142857143,113.06663767800848 743.5714285714286,123.71127296445263 772.8571428571429,117.17577997608436 802.1428571428571,108.76182193716704 831.4285714285714,93.10794651592568 860.7142857142857,88.88140015219045 890.0,89.54668985759321" />
<circle cx="70.0" cy="95.69083596043049" r="4.5" fill="#b54d2e" />
<text x="70.0" y="85.69083596043049" text-anchor="middle" font-size="11" fill="#b54d2e">8287</text>
<circle cx="99.28571428571428" cy="127.31166431133818" r="4.5" fill="#b54d2e" />
<text x="99.28571428571428" y="117.31166431133818" text-anchor="middle" font-size="11" fill="#b54d2e">7479</text>
<circle cx="128.57142857142856" cy="130.87292096967064" r="4.5" fill="#b54d2e" />
<text x="128.57142857142856" y="120.87292096967064" text-anchor="middle" font-size="11" fill="#b54d2e">7388</text>
<circle cx="157.85714285714286" cy="122.14588542232849" r="4.5" fill="#b54d2e" />
<text x="157.85714285714286" y="112.14588542232849" text-anchor="middle" font-size="11" fill="#b54d2e">7611</text>
<circle cx="187.14285714285714" cy="91.6990977280139" r="4.5" fill="#b54d2e" />
<text x="187.14285714285714" y="81.6990977280139" text-anchor="middle" font-size="11" fill="#b54d2e">8389</text>
<circle cx="216.42857142857142" cy="125.78541145776711" r="4.5" fill="#b54d2e" />
<text x="216.42857142857142" y="115.78541145776711" text-anchor="middle" font-size="11" fill="#b54d2e">7518</text>
<circle cx="245.71428571428572" cy="60.0" r="4.5" fill="#b54d2e" />
<text x="245.71428571428572" y="50.0" text-anchor="middle" font-size="11" fill="#b54d2e">9199</text>
<circle cx="275.0" cy="61.17404065659309" r="4.5" fill="#b54d2e" />
<text x="275.0" y="51.17404065659309" text-anchor="middle" font-size="11" fill="#b54d2e">9169</text>
<circle cx="304.2857142857143" cy="138.2302424176541" r="4.5" fill="#b54d2e" />
<text x="304.2857142857143" y="128.2302424176541" text-anchor="middle" font-size="11" fill="#b54d2e">7200</text>
<circle cx="333.57142857142856" cy="120.07174692901401" r="4.5" fill="#b54d2e" />
<text x="333.57142857142856" y="110.07174692901401" text-anchor="middle" font-size="11" fill="#b54d2e">7664</text>
<circle cx="362.85714285714283" cy="130.5598434612458" r="4.5" fill="#b54d2e" />
<text x="362.85714285714283" y="120.5598434612458" text-anchor="middle" font-size="11" fill="#b54d2e">7396</text>
<circle cx="392.14285714285717" cy="148.79660832699204" r="4.5" fill="#b54d2e" />
<text x="392.14285714285717" y="138.79660832699204" text-anchor="middle" font-size="11" fill="#b54d2e">6930</text>
<circle cx="421.42857142857144" cy="121.71540384824436" r="4.5" fill="#b54d2e" />
<text x="421.42857142857144" y="111.71540384824436" text-anchor="middle" font-size="11" fill="#b54d2e">7622</text>
<circle cx="450.7142857142857" cy="71.11425154908142" r="4.5" fill="#b54d2e" />
<text x="450.7142857142857" y="61.114251549081416" text-anchor="middle" font-size="11" fill="#b54d2e">8915</text>
<circle cx="480.0" cy="83.05033155777807" r="4.5" fill="#b54d2e" />
<text x="480.0" y="73.05033155777807" text-anchor="middle" font-size="11" fill="#b54d2e">8610</text>
<circle cx="509.2857142857143" cy="102.03065550603327" r="4.5" fill="#b54d2e" />
<text x="509.2857142857143" y="92.03065550603327" text-anchor="middle" font-size="11" fill="#b54d2e">8125</text>
<circle cx="538.5714285714286" cy="121.71540384824436" r="4.5" fill="#b54d2e" />
<text x="538.5714285714286" y="111.71540384824436" text-anchor="middle" font-size="11" fill="#b54d2e">7622</text>
<circle cx="567.8571428571429" cy="111.1881726274595" r="4.5" fill="#b54d2e" />
<text x="567.8571428571429" y="101.1881726274595" text-anchor="middle" font-size="11" fill="#b54d2e">7891</text>
<circle cx="597.1428571428571" cy="90.4467876943146" r="4.5" fill="#b54d2e" />
<text x="597.1428571428571" y="80.4467876943146" text-anchor="middle" font-size="11" fill="#b54d2e">8421</text>
<circle cx="626.4285714285714" cy="101.71757799760843" r="4.5" fill="#b54d2e" />
<text x="626.4285714285714" y="91.71757799760843" text-anchor="middle" font-size="11" fill="#b54d2e">8133</text>
<circle cx="655.7142857142857" cy="87.78562887270357" r="4.5" fill="#b54d2e" />
<text x="655.7142857142857" y="77.78562887270357" text-anchor="middle" font-size="11" fill="#b54d2e">8489</text>
<circle cx="685.0" cy="68.21828459615176" r="4.5" fill="#b54d2e" />
<text x="685.0" y="58.21828459615176" text-anchor="middle" font-size="11" fill="#b54d2e">8989</text>
<circle cx="714.2857142857143" cy="113.06663767800848" r="4.5" fill="#b54d2e" />
<text x="714.2857142857143" y="103.06663767800848" text-anchor="middle" font-size="11" fill="#b54d2e">7843</text>
<circle cx="743.5714285714286" cy="123.71127296445263" r="4.5" fill="#b54d2e" />
<text x="743.5714285714286" y="113.71127296445263" text-anchor="middle" font-size="11" fill="#b54d2e">7571</text>
<circle cx="772.8571428571429" cy="117.17577997608436" r="4.5" fill="#b54d2e" />
<text x="772.8571428571429" y="107.17577997608436" text-anchor="middle" font-size="11" fill="#b54d2e">7738</text>
<circle cx="802.1428571428571" cy="108.76182193716704" r="4.5" fill="#b54d2e" />
<text x="802.1428571428571" y="98.76182193716704" text-anchor="middle" font-size="11" fill="#b54d2e">7953</text>
<circle cx="831.4285714285714" cy="93.10794651592568" r="4.5" fill="#b54d2e" />
<text x="831.4285714285714" y="83.10794651592568" text-anchor="middle" font-size="11" fill="#b54d2e">8353</text>
<circle cx="860.7142857142857" cy="88.88140015219045" r="4.5" fill="#b54d2e" />
<text x="860.7142857142857" y="78.88140015219045" text-anchor="middle" font-size="11" fill="#b54d2e">8461</text>
<circle cx="890.0" cy="89.54668985759321" r="4.5" fill="#b54d2e" />
<text x="890.0" y="79.54668985759321" text-anchor="middle" font-size="11" fill="#b54d2e">8444</text>
<rect x="770" y="18" width="14" height="14" rx="3" fill="#b54d2e" />
<text x="790" y="30" font-size="12" fill="#1f1a17">华东</text>
<polyline fill="none" stroke="#43553f" stroke-width="3" points="70.0,151.4969018371562 99.28571428571428,179.6738775953908 128.57142857142856,192.7839982606805 157.85714285714286,180.6131101206653 187.14285714285714,179.4390694640722 216.42857142857142,174.54723339493424 245.71428571428572,139.63909120556582 275.0,147.66170235895208 304.2857142857143,182.17849766278943 333.57142857142856,188.36177845417978 362.85714285714283,191.10120665289708 392.14285714285717,186.20937058375912 421.42857142857144,179.79128166105014 450.7142857142857,150.47939993477553 480.0,147.19208609631482 509.2857142857143,168.9901076203935 538.5714285714286,206.05065768018264 567.8571428571429,180.8087835634308 597.1428571428571,200.80660941406677 626.4285714285714,195.75823459071637 655.7142857142857,186.36590933797152 685.0,166.68116099576042 714.2857142857143,209.49451027285576 743.5714285714286,207.42037177954126 772.8571428571429,221.19578215023373 802.1428571428571,229.4532014349386 831.4285714285714,233.6797477986738 860.7142857142857,220.56962713338407 890.0,209.964126535493" />
<circle cx="70.0" cy="151.4969018371562" r="4.5" fill="#43553f" />
<text x="70.0" y="141.4969018371562" text-anchor="middle" font-size="11" fill="#43553f">6861</text>
<circle cx="99.28571428571428" cy="179.6738775953908" r="4.5" fill="#43553f" />
<text x="99.28571428571428" y="169.6738775953908" text-anchor="middle" font-size="11" fill="#43553f">6141</text>
<circle cx="128.57142857142856" cy="192.7839982606805" r="4.5" fill="#43553f" />
<text x="128.57142857142856" y="182.7839982606805" text-anchor="middle" font-size="11" fill="#43553f">5806</text>
<circle cx="157.85714285714286" cy="180.6131101206653" r="4.5" fill="#43553f" />
<text x="157.85714285714286" y="170.6131101206653" text-anchor="middle" font-size="11" fill="#43553f">6117</text>
<circle cx="187.14285714285714" cy="179.4390694640722" r="4.5" fill="#43553f" />
<text x="187.14285714285714" y="169.4390694640722" text-anchor="middle" font-size="11" fill="#43553f">6147</text>
<circle cx="216.42857142857142" cy="174.54723339493424" r="4.5" fill="#43553f" />
<text x="216.42857142857142" y="164.54723339493424" text-anchor="middle" font-size="11" fill="#43553f">6272</text>
<circle cx="245.71428571428572" cy="139.63909120556582" r="4.5" fill="#43553f" />
<text x="245.71428571428572" y="129.63909120556582" text-anchor="middle" font-size="11" fill="#43553f">7164</text>
<circle cx="275.0" cy="147.66170235895208" r="4.5" fill="#43553f" />
<text x="275.0" y="137.66170235895208" text-anchor="middle" font-size="11" fill="#43553f">6959</text>
<circle cx="304.2857142857143" cy="182.17849766278943" r="4.5" fill="#43553f" />
<text x="304.2857142857143" y="172.17849766278943" text-anchor="middle" font-size="11" fill="#43553f">6077</text>
<circle cx="333.57142857142856" cy="188.36177845417978" r="4.5" fill="#43553f" />
<text x="333.57142857142856" y="178.36177845417978" text-anchor="middle" font-size="11" fill="#43553f">5919</text>
<circle cx="362.85714285714283" cy="191.10120665289708" r="4.5" fill="#43553f" />
<text x="362.85714285714283" y="181.10120665289708" text-anchor="middle" font-size="11" fill="#43553f">5849</text>
<circle cx="392.14285714285717" cy="186.20937058375912" r="4.5" fill="#43553f" />
<text x="392.14285714285717" y="176.20937058375912" text-anchor="middle" font-size="11" fill="#43553f">5974</text>
<circle cx="421.42857142857144" cy="179.79128166105014" r="4.5" fill="#43553f" />
<text x="421.42857142857144" y="169.79128166105014" text-anchor="middle" font-size="11" fill="#43553f">6138</text>
<circle cx="450.7142857142857" cy="150.47939993477553" r="4.5" fill="#43553f" />
<text x="450.7142857142857" y="140.47939993477553" text-anchor="middle" font-size="11" fill="#43553f">6887</text>
<circle cx="480.0" cy="147.19208609631482" r="4.5" fill="#43553f" />
<text x="480.0" y="137.19208609631482" text-anchor="middle" font-size="11" fill="#43553f">6971</text>
<circle cx="509.2857142857143" cy="168.9901076203935" r="4.5" fill="#43553f" />
<text x="509.2857142857143" y="158.9901076203935" text-anchor="middle" font-size="11" fill="#43553f">6414</text>
<circle cx="538.5714285714286" cy="206.05065768018264" r="4.5" fill="#43553f" />
<text x="538.5714285714286" y="196.05065768018264" text-anchor="middle" font-size="11" fill="#43553f">5467</text>
<circle cx="567.8571428571429" cy="180.8087835634308" r="4.5" fill="#43553f" />
<text x="567.8571428571429" y="170.8087835634308" text-anchor="middle" font-size="11" fill="#43553f">6112</text>
<circle cx="597.1428571428571" cy="200.80660941406677" r="4.5" fill="#43553f" />
<text x="597.1428571428571" y="190.80660941406677" text-anchor="middle" font-size="11" fill="#43553f">5601</text>
<circle cx="626.4285714285714" cy="195.75823459071637" r="4.5" fill="#43553f" />
<text x="626.4285714285714" y="185.75823459071637" text-anchor="middle" font-size="11" fill="#43553f">5730</text>
<circle cx="655.7142857142857" cy="186.36590933797152" r="4.5" fill="#43553f" />
<text x="655.7142857142857" y="176.36590933797152" text-anchor="middle" font-size="11" fill="#43553f">5970</text>
<circle cx="685.0" cy="166.68116099576042" r="4.5" fill="#43553f" />
<text x="685.0" y="156.68116099576042" text-anchor="middle" font-size="11" fill="#43553f">6473</text>
<circle cx="714.2857142857143" cy="209.49451027285576" r="4.5" fill="#43553f" />
<text x="714.2857142857143" y="199.49451027285576" text-anchor="middle" font-size="11" fill="#43553f">5379</text>
<circle cx="743.5714285714286" cy="207.42037177954126" r="4.5" fill="#43553f" />
<text x="743.5714285714286" y="197.42037177954126" text-anchor="middle" font-size="11" fill="#43553f">5432</text>
<circle cx="772.8571428571429" cy="221.19578215023373" r="4.5" fill="#43553f" />
<text x="772.8571428571429" y="211.19578215023373" text-anchor="middle" font-size="11" fill="#43553f">5080</text>
<circle cx="802.1428571428571" cy="229.4532014349386" r="4.5" fill="#43553f" />
<text x="802.1428571428571" y="219.4532014349386" text-anchor="middle" font-size="11" fill="#43553f">4869</text>
<circle cx="831.4285714285714" cy="233.6797477986738" r="4.5" fill="#43553f" />
<text x="831.4285714285714" y="223.6797477986738" text-anchor="middle" font-size="11" fill="#43553f">4761</text>
<circle cx="860.7142857142857" cy="220.56962713338407" r="4.5" fill="#43553f" />
<text x="860.7142857142857" y="210.56962713338407" text-anchor="middle" font-size="11" fill="#43553f">5096</text>
<circle cx="890.0" cy="209.964126535493" r="4.5" fill="#43553f" />
<text x="890.0" y="199.964126535493" text-anchor="middle" font-size="11" fill="#43553f">5367</text>
<rect x="770" y="38" width="14" height="14" rx="3" fill="#43553f" />
<text x="790" y="50" font-size="12" fill="#1f1a17">华南</text>
</svg>