<svg xmlns="http://www.w3.org/2000/svg" width="920" height="480" viewBox="0 0 920 480">
<rect width="100%" height="100%" fill="#fffaf1" rx="24" />
<text x="70" y="36" font-size="24" fill="#1f1a17" font-family="PingFang SC, Microsoft YaHei, sans-serif">智能问数结果</text>
<line x1="70" y1="60.0" x2="890" y2="60.0" stroke="#e8dccd" stroke-width="1"/>
<text x="16" y="64.0" font-size="12" fill="#665c54">1900.0</text>
<line x1="70" y1="150.0" x2="890" y2="150.0" stroke="#e8dccd" stroke-width="1"/>
<text x="16" y="154.0" font-size="12" fill="#665c54">1425.0</text>
<line x1="70" y1="240.0" x2="890" y2="240.0" stroke="#e8dccd" stroke-width="1"/>
<text x="16" y="244.0" font-size="12" fill="#665c54">950.0</text>
<line x1="70" y1="330.0" x2="890" y2="330.0" stroke="#e8dccd" stroke-width="1"/>
<text x="16" y="334.0" font-size="12" fill="#665c54">475.0</text>
<line x1="70" y1="420.0" x2="890" y2="420.0" stroke="#e8dccd" stroke-width="1"/>
<text x="16" y="424.0" font-size="12" fill="#665c54">0.0</text>
<line x1="70.0" y1="60" x2="70.0" y2="420" stroke="#f1e6d8" stroke-width="1"/>
<text x="70.0" y="458" text-anchor="middle" font-size="12" fill="#665c54">2026-02-01</text>
<line x1="343.3333333333333" y1="60" x2="343.3333333333333" y2="420" stroke="#f1e6d8" stroke-width="1"/>
<text x="343.3333333333333" y="458" text-anchor="middle" font-size="12" fill="#665c54">2026-02-02</text>
<line x1="616.6666666666666" y1="60" x2="616.6666666666666" y2="420" stroke="#f1e6d8" stroke-width="1"/>
<text x="616.6666666666666" y="458" text-anchor="middle" font-size="12" fill="#665c54">2026-02-03</text>
<line x1="890.0" y1="60" x2="890.0" y2="420" stroke="#f1e6d8" stroke-width="1"/>
<text x="890.0" y="458" text-anchor="middle" font-size="12" fill="#665c54">2026-02-04</text>
<polyline fill="none" stroke="#b54d2e" stroke-width="3" points="70.0,192.63157894736844 343.3333333333333,135.78947368421052 616.6666666666666,78.94736842105266 890.0,60.0" />
<circle cx="70.0" cy="192.63157894736844" r="4.5" fill="#b54d2e" />
<text x="70.0" y="182.63157894736844" text-anchor="middle" font-size="11" fill="#b54d2e">1200</text>
<circle cx="343.3333333333333" cy="135.78947368421052" r="4.5" fill="#b54d2e" />
<text x="343.3333333333333" y="125.78947368421052" text-anchor="middle" font-size="11" fill="#b54d2e">1500</text>
<circle cx="616.6666666666666" cy="78.94736842105266" r="4.5" fill="#b54d2e" />
<text x="616.6666666666666" y="68.94736842105266" text-anchor="middle" font-size="11" fill="#b54d2e">1800</text>
<circle cx="890.0" cy="60.0" r="4.5" fill="#b54d2e" />
<text x="890.0" y="50.0" text-anchor="middle" font-size="11" fill="#b54d2e">1900</text>
<rect x="770" y="18" width="14" height="14" rx="3" fill="#b54d2e" />
<text x="790" y="30" font-size="12" fill="#1f1a17">华东</text>
<polyline fill="none" stroke="#43553f" stroke-width="3" points="70.0,249.47368421052633 343.3333333333333,268.42105263157896 616.6666666666666,230.5263157894737 890.0,211.57894736842104" />
<circle cx="70.0" cy="249.47368421052633" r="4.5" fill="#43553f" />
<text x="70.0" y="239.47368421052633" text-anchor="middle" font-size="11" fill="#43553f">900</text>
<circle cx="343.3333333333333" cy="268.42105263157896" r="4.5" fill="#43553f" />
<text x="343.3333333333333" y="258.42105263157896" text-anchor="middle" font-size="11" fill="#43553f">800</text>
<circle cx="616.6666666666666" cy="230.5263157894737" r="4.5" fill="#43553f" />
<text x="616.6666666666666" y="220.5263157894737" text-anchor="middle" font-size="11" fill="#43553f">1000</text>
<circle cx="890.0" cy="211.57894736842104" r="4.5" fill="#43553f" />
<text x="890.0" y="201.57894736842104" text-anchor="middle" font-size="11" fill="#43553f">1100</text>
<rect x="770" y="38" width="14" height="14" rx="3" fill="#43553f" />
<text x="790" y="50" font-size="12" fill="#1f1a17">华南</text>
</svg>