<svg xmlns="http://www.w3.org/2000/svg" width="920" height="480" viewBox="0 0 920 480">
<rect width="100%" height="100%" fill="#fffaf1" rx="24" />
<text x="70" y="36" font-size="24" fill="#1f1a17" font-family="PingFang SC, Microsoft YaHei, sans-serif">智能问数结果</text>
<line x1="70" y1="60.0" x2="890" y2="60.0" stroke="#e8dccd" stroke-width="1"/>
<text x="16" y="64.0" font-size="12" fill="#665c54">9199.0</text>
<line x1="70" y1="150.0" x2="890" y2="150.0" stroke="#e8dccd" stroke-width="1"/>
<text x="16" y="154.0" font-size="12" fill="#665c54">6899.25</text>
<line x1="70" y1="240.0" x2="890" y2="240.0" stroke="#e8dccd" stroke-width="1"/>
<text x="16" y="244.0" font-size="12" fill="#665c54">4599.5</text>
<line x1="70" y1="330.0" x2="890" y2="330.0" stroke="#e8dccd" stroke-width="1"/>
<text x="16" y="334.0" font-size="12" fill="#665c54">2299.75</text>
<line x1="70" y1="420.0" x2="890" y2="420.0" stroke="#e8dccd" stroke-width="1"/>
<text x="16" y="424.0" font-size="12" fill="#665c54">0.0</text>
<line x1="70.0" y1="60" x2="70.0" y2="420" stroke="#f1e6d8" stroke-width="1"/>
<text x="70.0" y="458" text-anchor="middle" font-size="12" fill="#665c54">2026-02-08</text>
<line x1="99.28571428571428" y1="60" x2="99.28571428571428" y2="420" stroke="#f1e6d8" stroke-width="1"/>
<text x="99.28571428571428" y="458" text-anchor="middle" font-size="12" fill="#665c54">2026-02-09</text>
<line x1="128.57142857142856" y1="60" x2="128.57142857142856" y2="420" stroke="#f1e6d8" stroke-width="1"/>
<text x="128.57142857142856" y="458" text-anchor="middle" font-size="12" fill="#665c54">2026-02-10</text>
<line x1="157.85714285714286" y1="60" x2="157.85714285714286" y2="420" stroke="#f1e6d8" stroke-width="1"/>
<text x="157.85714285714286" y="458" text-anchor="middle" font-size="12" fill="#665c54">2026-02-11</text>
<line x1="187.14285714285714" y1="60" x2="187.14285714285714" y2="420" stroke="#f1e6d8" stroke-width="1"/>
<text x="187.14285714285714" y="458" text-anchor="middle" font-size="12" fill="#665c54">2026-02-12</text>
<line x1="216.42857142857142" y1="60" x2="216.42857142857142" y2="420" stroke="#f1e6d8" stroke-width="1"/>
<text x="216.42857142857142" y="458" text-anchor="middle" font-size="12" fill="#665c54">2026-02-13</text>
<line x1="245.71428571428572" y1="60" x2="245.71428571428572" y2="420" stroke="#f1e6d8" stroke-width="1"/>
<text x="245.71428571428572" y="458" text-anchor="middle" font-size="12" fill="#665c54">2026-02-14</text>
<line x1="275.0" y1="60" x2="275.0" y2="420" stroke="#f1e6d8" stroke-width="1"/>
<text x="275.0" y="458" text-anchor="middle" font-size="12" fill="#665c54">2026-02-15</text>
<line x1="304.2857142857143" y1="60" x2="304.2857142857143" y2="420" stroke="#f1e6d8" stroke-width="1"/>
<text x="304.2857142857143" y="458" text-anchor="middle" font-size="12" fill="#665c54">2026-02-16</text>
<line x1="333.57142857142856" y1="60" x2="333.57142857142856" y2="420" stroke="#f1e6d8" stroke-width="1"/>
<text x="333.57142857142856" y="458" text-anchor="middle" font-size="12" fill="#665c54">2026-02-17</text>
<line x1="362.85714285714283" y1="60" x2="362.85714285714283" y2="420" stroke="#f1e6d8" stroke-width="1"/>
<text x="362.85714285714283" y="458" text-anchor="middle" font-size="12" fill="#665c54">2026-02-18</text>
<line x1="392.14285714285717" y1="60" x2="392.14285714285717" y2="420" stroke="#f1e6d8" stroke-width="1"/>
<text x="392.14285714285717" y="458" text-anchor="middle" font-size="12" fill="#665c54">2026-02-19</text>
<line x1="421.42857142857144" y1="60" x2="421.42857142857144" y2="420" stroke="#f1e6d8" stroke-width="1"/>
<text x="421.42857142857144" y="458" text-anchor="middle" font-size="12" fill="#665c54">2026-02-20</text>
<line x1="450.7142857142857" y1="60" x2="450.7142857142857" y2="420" stroke="#f1e6d8" stroke-width="1"/>
<text x="450.7142857142857" y="458" text-anchor="middle" font-size="12" fill="#665c54">2026-02-21</text>
<line x1="480.0" y1="60" x2="480.0" y2="420" stroke="#f1e6d8" stroke-width="1"/>
<text x="480.0" y="458" text-anchor="middle" font-size="12" fill="#665c54">2026-02-22</text>
<line x1="509.2857142857143" y1="60" x2="509.2857142857143" y2="420" stroke="#f1e6d8" stroke-width="1"/>
<text x="509.2857142857143" y="458" text-anchor="middle" font-size="12" fill="#665c54">2026-02-23</text>
<line x1="538.5714285714286" y1="60" x2="538.5714285714286" y2="420" stroke="#f1e6d8" stroke-width="1"/>
<text x="538.5714285714286" y="458" text-anchor="middle" font-size="12" fill="#665c54">2026-02-24</text>
<line x1="567.8571428571429" y1="60" x2="567.8571428571429" y2="420" stroke="#f1e6d8" stroke-width="1"/>
<text x="567.8571428571429" y="458" text-anchor="middle" font-size="12" fill="#665c54">2026-02-25</text>
<line x1="597.1428571428571" y1="60" x2="597.1428571428571" y2="420" stroke="#f1e6d8" stroke-width="1"/>
<text x="597.1428571428571" y="458" text-anchor="middle" font-size="12" fill="#665c54">2026-02-26</text>
<line x1="626.4285714285714" y1="60" x2="626.4285714285714" y2="420" stroke="#f1e6d8" stroke-width="1"/>
<text x="626.4285714285714" y="458" text-anchor="middle" font-size="12" fill="#665c54">2026-02-27</text>
<line x1="655.7142857142857" y1="60" x2="655.7142857142857" y2="420" stroke="#f1e6d8" stroke-width="1"/>
<text x="655.7142857142857" y="458" text-anchor="middle" font-size="12" fill="#665c54">2026-02-28</text>
<line x1="685.0" y1="60" x2="685.0" y2="420" stroke="#f1e6d8" stroke-width="1"/>
<text x="685.0" y="458" text-anchor="middle" font-size="12" fill="#665c54">2026-03-01</text>
<line x1="714.2857142857143" y1="60" x2="714.2857142857143" y2="420" stroke="#f1e6d8" stroke-width="1"/>
<text x="714.2857142857143" y="458" text-anchor="middle" font-size="12" fill="#665c54">2026-03-02</text>
<line x1="743.5714285714286" y1="60" x2="743.5714285714286" y2="420" stroke="#f1e6d8" stroke-width="1"/>
<text x="743.5714285714286" y="458" text-anchor="middle" font-size="12" fill="#665c54">2026-03-03</text>
<line x1="772.8571428571429" y1="60" x2="772.8571428571429" y2="420" stroke="#f1e6d8" stroke-width="1"/>
<text x="772.8571428571429" y="458" text-anchor="middle" font-size="12" fill="#665c54">2026-03-04</text>
<line x1="802.1428571428571" y1="60" x2="802.1428571428571" y2="420" stroke="#f1e6d8" stroke-width="1"/>
<text x="802.1428571428571" y="458" text-anchor="middle" font-size="12" fill="#665c54">2026-03-05</text>
<line x1="831.4285714285714" y1="60" x2="831.4285714285714" y2="420" stroke="#f1e6d8" stroke-width="1"/>
<text x="831.4285714285714" y="458" text-anchor="middle" font-size="12" fill="#665c54">2026-03-06</text>
<line x1="860.7142857142857" y1="60" x2="860.7142857142857" y2="420" stroke="#f1e6d8" stroke-width="1"/>
<text x="860.7142857142857" y="458" text-anchor="middle" font-size="12" fill="#665c54">2026-03-07</text>
<line x1="890.0" y1="60" x2="890.0" y2="420" stroke="#f1e6d8" stroke-width="1"/>
<text x="890.0" y="458" text-anchor="middle" font-size="12" fill="#665c54">2026-03-08</text>
<polyline fill="none" stroke="#b54d2e" stroke-width="3" points="70.0,95.69083596043049 99.28571428571428,127.31166431133818 128.57142857142856,130.87292096967064 157.85714285714286,122.14588542232849 187.14285714285714,91.6990977280139 216.42857142857142,125.78541145776711 245.71428571428572,60.0 275.0,61.17404065659309 304.2857142857143,138.2302424176541 333.57142857142856,120.07174692901401 362.85714285714283,130.5598434612458 392.14285714285717,148.79660832699204 421.42857142857144,121.71540384824436 450.7142857142857,71.11425154908142 480.0,83.05033155777807 509.2857142857143,102.03065550603327 538.5714285714286,121.71540384824436 567.8571428571429,111.1881726274595 597.1428571428571,90.4467876943146 626.4285714285714,101.71757799760843 655.7142857142857,87.78562887270357 685.0,68.21828459615176 714.2857142857143,113.06663767800848 743.5714285714286,123.71127296445263 772.8571428571429,117.17577997608436 802.1428571428571,108.76182193716704 831.4285714285714,93.10794651592568 860.7142857142857,88.88140015219045 890.0,89.54668985759321" />
<circle cx="70.0" cy="95.69083596043049" r="4.5" fill="#b54d2e" />
<text x="70.0" y="85.69083596043049" text-anchor="middle" font-size="11" fill="#b54d2e">8287</text>
<circle cx="99.28571428571428" cy="127.31166431133818" r="4.5" fill="#b54d2e" />
<text x="99.28571428571428" y="117.31166431133818" text-anchor="middle" font-size="11" fill="#b54d2e">7479</text>
<circle cx="128.57142857142856" cy="130.87292096967064" r="4.5" fill="#b54d2e" />
<text x="128.57142857142856" y="120.87292096967064" text-anchor="middle" font-size="11" fill="#b54d2e">7388</text>
<circle cx="157.85714285714286" cy="122.14588542232849" r="4.5" fill="#b54d2e" />
<text x="157.85714285714286" y="112.14588542232849" text-anchor="middle" font-size="11" fill="#b54d2e">7611</text>
<circle cx="187.14285714285714" cy="91.6990977280139" r="4.5" fill="#b54d2e" />
<text x="187.14285714285714" y="81.6990977280139" text-anchor="middle" font-size="11" fill="#b54d2e">8389</text>
<circle cx="216.42857142857142" cy="125.78541145776711" r="4.5" fill="#b54d2e" />
<text x="216.42857142857142" y="115.78541145776711" text-anchor="middle" font-size="11" fill="#b54d2e">7518</text>
<circle cx="245.71428571428572" cy="60.0" r="4.5" fill="#b54d2e" />
<text x="245.71428571428572" y="50.0" text-anchor="middle" font-size="11" fill="#b54d2e">9199</text>
<circle cx="275.0" cy="61.17404065659309" r="4.5" fill="#b54d2e" />
<text x="275.0" y="51.17404065659309" text-anchor="middle" font-size="11" fill="#b54d2e">9169</text>
<circle cx="304.2857142857143" cy="138.2302424176541" r="4.5" fill="#b54d2e" />
<text x="304.2857142857143" y="128.2302424176541" text-anchor="middle" font-size="11" fill="#b54d2e">7200</text>
<circle cx="333.57142857142856" cy="120.07174692901401" r="4.5" fill="#b54d2e" />
<text x="333.57142857142856" y="110.07174692901401" text-anchor="middle" font-size="11" fill="#b54d2e">7664</text>
<circle cx="362.85714285714283" cy="130.5598434612458" r="4.5" fill="#b54d2e" />
<text x="362.85714285714283" y="120.5598434612458" text-anchor="middle" font-size="11" fill="#b54d2e">7396</text>
<circle cx="392.14285714285717" cy="148.79660832699204" r="4.5" fill="#b54d2e" />
<text x="392.14285714285717" y="138.79660832699204" text-anchor="middle" font-size="11" fill="#b54d2e">6930</text>
<circle cx="421.42857142857144" cy="121.71540384824436" r="4.5" fill="#b54d2e" />
<text x="421.42857142857144" y="111.71540384824436" text-anchor="middle" font-size="11" fill="#b54d2e">7622</text>
<circle cx="450.7142857142857" cy="71.11425154908142" r="4.5" fill="#b54d2e" />
<text x="450.7142857142857" y="61.114251549081416" text-anchor="middle" font-size="11" fill="#b54d2e">8915</text>
<circle cx="480.0" cy="83.05033155777807" r="4.5" fill="#b54d2e" />
<text x="480.0" y="73.05033155777807" text-anchor="middle" font-size="11" fill="#b54d2e">8610</text>
<circle cx="509.2857142857143" cy="102.03065550603327" r="4.5" fill="#b54d2e" />
<text x="509.2857142857143" y="92.03065550603327" text-anchor="middle" font-size="11" fill="#b54d2e">8125</text>
<circle cx="538.5714285714286" cy="121.71540384824436" r="4.5" fill="#b54d2e" />
<text x="538.5714285714286" y="111.71540384824436" text-anchor="middle" font-size="11" fill="#b54d2e">7622</text>
<circle cx="567.8571428571429" cy="111.1881726274595" r="4.5" fill="#b54d2e" />
<text x="567.8571428571429" y="101.1881726274595" text-anchor="middle" font-size="11" fill="#b54d2e">7891</text>
<circle cx="597.1428571428571" cy="90.4467876943146" r="4.5" fill="#b54d2e" />
<text x="597.1428571428571" y="80.4467876943146" text-anchor="middle" font-size="11" fill="#b54d2e">8421</text>
<circle cx="626.4285714285714" cy="101.71757799760843" r="4.5" fill="#b54d2e" />
<text x="626.4285714285714" y="91.71757799760843" text-anchor="middle" font-size="11" fill="#b54d2e">8133</text>
<circle cx="655.7142857142857" cy="87.78562887270357" r="4.5" fill="#b54d2e" />
<text x="655.7142857142857" y="77.78562887270357" text-anchor="middle" font-size="11" fill="#b54d2e">8489</text>
<circle cx="685.0" cy="68.21828459615176" r="4.5" fill="#b54d2e" />
<text x="685.0" y="58.21828459615176" text-anchor="middle" font-size="11" fill="#b54d2e">8989</text>
<circle cx="714.2857142857143" cy="113.06663767800848" r="4.5" fill="#b54d2e" />
<text x="714.2857142857143" y="103.06663767800848" text-anchor="middle" font-size="11" fill="#b54d2e">7843</text>
<circle cx="743.5714285714286" cy="123.71127296445263" r="4.5" fill="#b54d2e" />
<text x="743.5714285714286" y="113.71127296445263" text-anchor="middle" font-size="11" fill="#b54d2e">7571</text>
<circle cx="772.8571428571429" cy="117.17577997608436" r="4.5" fill="#b54d2e" />
<text x="772.8571428571429" y="107.17577997608436" text-anchor="middle" font-size="11" fill="#b54d2e">7738</text>
<circle cx="802.1428571428571" cy="108.76182193716704" r="4.5" fill="#b54d2e" />
<text x="802.1428571428571" y="98.76182193716704" text-anchor="middle" font-size="11" fill="#b54d2e">7953</text>
<circle cx="831.4285714285714" cy="93.10794651592568" r="4.5" fill="#b54d2e" />
<text x="831.4285714285714" y="83.10794651592568" text-anchor="middle" font-size="11" fill="#b54d2e">8353</text>
<circle cx="860.7142857142857" cy="88.88140015219045" r="4.5" fill="#b54d2e" />
<text x="860.7142857142857" y="78.88140015219045" text-anchor="middle" font-size="11" fill="#b54d2e">8461</text>
<circle cx="890.0" cy="89.54668985759321" r="4.5" fill="#b54d2e" />
<text x="890.0" y="79.54668985759321" text-anchor="middle" font-size="11" fill="#b54d2e">8444</text>
<rect x="770" y="18" width="14" height="14" rx="3" fill="#b54d2e" />
<text x="790" y="30" font-size="12" fill="#1f1a17">华东</text>
<polyline fill="none" stroke="#43553f" stroke-width="3" points="70.0,217.39971736058268 99.28571428571428,251.4077617132297 128.57142857142856,245.49842374171104 157.85714285714286,250.89901076203935 187.14285714285714,248.70746820306553 216.42857142857142,245.85063593868898 245.71428571428572,208.94662463311232 275.0,184.13523209044462 304.2857142857143,236.2235025546255 333.57142857142856,224.32655723448198 362.85714285714283,221.58712903576475 392.14285714285717,231.60560930535928 421.42857142857144,221.9002065441896 450.7142857142857,220.60876182193715 480.0,199.2803565604957 509.2857142857143,225.65713664528752 538.5714285714286,207.18556364822263 567.8571428571429,213.68192194803783 597.1428571428571,210.9424937493206 626.4285714285714,203.58517230133708 655.7142857142857,184.21350146755083 685.0,177.28666159365147 714.2857142857143,216.22567670398956 743.5714285714286,209.1814327644309 772.8571428571429,200.4935319056419 802.1428571428571,201.78497662789437 831.4285714285714,213.2123056854006 860.7142857142857,171.37732362213285 890.0,157.68018262854662" />
<circle cx="70.0" cy="217.39971736058268" r="4.5" fill="#43553f" />
<text x="70.0" y="207.39971736058268" text-anchor="middle" font-size="11" fill="#43553f">5177</text>
<circle cx="99.28571428571428" cy="251.4077617132297" r="4.5" fill="#43553f" />
<text x="99.28571428571428" y="241.4077617132297" text-anchor="middle" font-size="11" fill="#43553f">4308</text>
<circle cx="128.57142857142856" cy="245.49842374171104" r="4.5" fill="#43553f" />
<text x="128.57142857142856" y="235.49842374171104" text-anchor="middle" font-size="11" fill="#43553f">4459</text>
<circle cx="157.85714285714286" cy="250.89901076203935" r="4.5" fill="#43553f" />
<text x="157.85714285714286" y="240.89901076203935" text-anchor="middle" font-size="11" fill="#43553f">4321</text>
<circle cx="187.14285714285714" cy="248.70746820306553" r="4.5" fill="#43553f" />
<text x="187.14285714285714" y="238.70746820306553" text-anchor="middle" font-size="11" fill="#43553f">4377</text>
<circle cx="216.42857142857142" cy="245.85063593868898" r="4.5" fill="#43553f" />
<text x="216.42857142857142" y="235.85063593868898" text-anchor="middle" font-size="11" fill="#43553f">4450</text>
<circle cx="245.71428571428572" cy="208.94662463311232" r="4.5" fill="#43553f" />
<text x="245.71428571428572" y="198.94662463311232" text-anchor="middle" font-size="11" fill="#43553f">5393</text>
<circle cx="275.0" cy="184.13523209044462" r="4.5" fill="#43553f" />
<text x="275.0" y="174.13523209044462" text-anchor="middle" font-size="11" fill="#43553f">6027</text>
<circle cx="304.2857142857143" cy="236.2235025546255" r="4.5" fill="#43553f" />
<text x="304.2857142857143" y="226.2235025546255" text-anchor="middle" font-size="11" fill="#43553f">4696</text>
<circle cx="333.57142857142856" cy="224.32655723448198" r="4.5" fill="#43553f" />
<text x="333.57142857142856" y="214.32655723448198" text-anchor="middle" font-size="11" fill="#43553f">5000</text>
<circle cx="362.85714285714283" cy="221.58712903576475" r="4.5" fill="#43553f" />
<text x="362.85714285714283" y="211.58712903576475" text-anchor="middle" font-size="11" fill="#43553f">5070</text>
<circle cx="392.14285714285717" cy="231.60560930535928" r="4.5" fill="#43553f" />
<text x="392.14285714285717" y="221.60560930535928" text-anchor="middle" font-size="11" fill="#43553f">4814</text>
<circle cx="421.42857142857144" cy="221.9002065441896" r="4.5" fill="#43553f" />
<text x="421.42857142857144" y="211.9002065441896" text-anchor="middle" font-size="11" fill="#43553f">5062</text>
<circle cx="450.7142857142857" cy="220.60876182193715" r="4.5" fill="#43553f" />
<text x="450.7142857142857" y="210.60876182193715" text-anchor="middle" font-size="11" fill="#43553f">5095</text>
<circle cx="480.0" cy="199.2803565604957" r="4.5" fill="#43553f" />
<text x="480.0" y="189.2803565604957" text-anchor="middle" font-size="11" fill="#43553f">5640</text>
<circle cx="509.2857142857143" cy="225.65713664528752" r="4.5" fill="#43553f" />
<text x="509.2857142857143" y="215.65713664528752" text-anchor="middle" font-size="11" fill="#43553f">4966</text>
<circle cx="538.5714285714286" cy="207.18556364822263" r="4.5" fill="#43553f" />
<text x="538.5714285714286" y="197.18556364822263" text-anchor="middle" font-size="11" fill="#43553f">5438</text>
<circle cx="567.8571428571429" cy="213.68192194803783" r="4.5" fill="#43553f" />
<text x="567.8571428571429" y="203.68192194803783" text-anchor="middle" font-size="11" fill="#43553f">5272</text>
<circle cx="597.1428571428571" cy="210.9424937493206" r="4.5" fill="#43553f" />
<text x="597.1428571428571" y="200.9424937493206" text-anchor="middle" font-size="11" fill="#43553f">5342</text>
<circle cx="626.4285714285714" cy="203.58517230133708" r="4.5" fill="#43553f" />
<text x="626.4285714285714" y="193.58517230133708" text-anchor="middle" font-size="11" fill="#43553f">5530</text>
<circle cx="655.7142857142857" cy="184.21350146755083" r="4.5" fill="#43553f" />
<text x="655.7142857142857" y="174.21350146755083" text-anchor="middle" font-size="11" fill="#43553f">6025</text>
<circle cx="685.0" cy="177.28666159365147" r="4.5" fill="#43553f" />
<text x="685.0" y="167.28666159365147" text-anchor="middle" font-size="11" fill="#43553f">6202</text>
<circle cx="714.2857142857143" cy="216.22567670398956" r="4.5" fill="#43553f" />
<text x="714.2857142857143" y="206.22567670398956" text-anchor="middle" font-size="11" fill="#43553f">5207</text>
<circle cx="743.5714285714286" cy="209.1814327644309" r="4.5" fill="#43553f" />
<text x="743.5714285714286" y="199.1814327644309" text-anchor="middle" font-size="11" fill="#43553f">5387</text>
<circle cx="772.8571428571429" cy="200.4935319056419" r="4.5" fill="#43553f" />
<text x="772.8571428571429" y="190.4935319056419" text-anchor="middle" font-size="11" fill="#43553f">5609</text>
<circle cx="802.1428571428571" cy="201.78497662789437" r="4.5" fill="#43553f" />
<text x="802.1428571428571" y="191.78497662789437" text-anchor="middle" font-size="11" fill="#43553f">5576</text>
<circle cx="831.4285714285714" cy="213.2123056854006" r="4.5" fill="#43553f" />
<text x="831.4285714285714" y="203.2123056854006" text-anchor="middle" font-size="11" fill="#43553f">5284</text>
<circle cx="860.7142857142857" cy="171.37732362213285" r="4.5" fill="#43553f" />
<text x="860.7142857142857" y="161.37732362213285" text-anchor="middle" font-size="11" fill="#43553f">6353</text>
<circle cx="890.0" cy="157.68018262854662" r="4.5" fill="#43553f" />
<text x="890.0" y="147.68018262854662" text-anchor="middle" font-size="11" fill="#43553f">6703</text>
<rect x="770" y="38" width="14" height="14" rx="3" fill="#43553f" />
<text x="790" y="50" font-size="12" fill="#1f1a17">华北</text>
<polyline fill="none" stroke="#a97a28" stroke-width="3" points="70.0,151.4969018371562 99.28571428571428,179.6738775953908 128.57142857142856,192.7839982606805 157.85714285714286,180.6131101206653 187.14285714285714,179.4390694640722 216.42857142857142,174.54723339493424 245.71428571428572,139.63909120556582 275.0,147.66170235895208 304.2857142857143,182.17849766278943 333.57142857142856,188.36177845417978 362.85714285714283,191.10120665289708 392.14285714285717,186.20937058375912 421.42857142857144,179.79128166105014 450.7142857142857,150.47939993477553 480.0,147.19208609631482 509.2857142857143,168.9901076203935 538.5714285714286,206.05065768018264 567.8571428571429,180.8087835634308 597.1428571428571,200.80660941406677 626.4285714285714,195.75823459071637 655.7142857142857,186.36590933797152 685.0,166.68116099576042 714.2857142857143,209.49451027285576 743.5714285714286,207.42037177954126 772.8571428571429,221.19578215023373 802.1428571428571,229.4532014349386 831.4285714285714,233.6797477986738 860.7142857142857,220.56962713338407 890.0,209.964126535493" />
<circle cx="70.0" cy="151.4969018371562" r="4.5" fill="#a97a28" />
<text x="70.0" y="141.4969018371562" text-anchor="middle" font-size="11" fill="#a97a28">6861</text>
<circle cx="99.28571428571428" cy="179.6738775953908" r="4.5" fill="#a97a28" />
<text x="99.28571428571428" y="169.6738775953908" text-anchor="middle" font-size="11" fill="#a97a28">6141</text>
<circle cx="128.57142857142856" cy="192.7839982606805" r="4.5" fill="#a97a28" />
<text x="128.57142857142856" y="182.7839982606805" text-anchor="middle" font-size="11" fill="#a97a28">5806</text>
<circle cx="157.85714285714286" cy="180.6131101206653" r="4.5" fill="#a97a28" />
<text x="157.85714285714286" y="170.6131101206653" text-anchor="middle" font-size="11" fill="#a97a28">6117</text>
<circle cx="187.14285714285714" cy="179.4390694640722" r="4.5" fill="#a97a28" />
<text x="187.14285714285714" y="169.4390694640722" text-anchor="middle" font-size="11" fill="#a97a28">6147</text>
<circle cx="216.42857142857142" cy="174.54723339493424" r="4.5" fill="#a97a28" />
<text x="216.42857142857142" y="164.54723339493424" text-anchor="middle" font-size="11" fill="#a97a28">6272</text>
<circle cx="245.71428571428572" cy="139.63909120556582" r="4.5" fill="#a97a28" />
<text x="245.71428571428572" y="129.63909120556582" text-anchor="middle" font-size="11" fill="#a97a28">7164</text>
<circle cx="275.0" cy="147.66170235895208" r="4.5" fill="#a97a28" />
<text x="275.0" y="137.66170235895208" text-anchor="middle" font-size="11" fill="#a97a28">6959</text>
<circle cx="304.2857142857143" cy="182.17849766278943" r="4.5" fill="#a97a28" />
<text x="304.2857142857143" y="172.17849766278943" text-anchor="middle" font-size="11" fill="#a97a28">6077</text>
<circle cx="333.57142857142856" cy="188.36177845417978" r="4.5" fill="#a97a28" />
<text x="333.57142857142856" y="178.36177845417978" text-anchor="middle" font-size="11" fill="#a97a28">5919</text>
<circle cx="362.85714285714283" cy="191.10120665289708" r="4.5" fill="#a97a28" />
<text x="362.85714285714283" y="181.10120665289708" text-anchor="middle" font-size="11" fill="#a97a28">5849</text>
<circle cx="392.14285714285717" cy="186.20937058375912" r="4.5" fill="#a97a28" />
<text x="392.14285714285717" y="176.20937058375912" text-anchor="middle" font-size="11" fill="#a97a28">5974</text>
<circle cx="421.42857142857144" cy="179.79128166105014" r="4.5" fill="#a97a28" />
<text x="421.42857142857144" y="169.79128166105014" text-anchor="middle" font-size="11" fill="#a97a28">6138</text>
<circle cx="450.7142857142857" cy="150.47939993477553" r="4.5" fill="#a97a28" />
<text x="450.7142857142857" y="140.47939993477553" text-anchor="middle" font-size="11" fill="#a97a28">6887</text>
<circle cx="480.0" cy="147.19208609631482" r="4.5" fill="#a97a28" />
<text x="480.0" y="137.19208609631482" text-anchor="middle" font-size="11" fill="#a97a28">6971</text>
<circle cx="509.2857142857143" cy="168.9901076203935" r="4.5" fill="#a97a28" />
<text x="509.2857142857143" y="158.9901076203935" text-anchor="middle" font-size="11" fill="#a97a28">6414</text>
<circle cx="538.5714285714286" cy="206.05065768018264" r="4.5" fill="#a97a28" />
<text x="538.5714285714286" y="196.05065768018264" text-anchor="middle" font-size="11" fill="#a97a28">5467</text>
<circle cx="567.8571428571429" cy="180.8087835634308" r="4.5" fill="#a97a28" />
<text x="567.8571428571429" y="170.8087835634308" text-anchor="middle" font-size="11" fill="#a97a28">6112</text>
<circle cx="597.1428571428571" cy="200.80660941406677" r="4.5" fill="#a97a28" />
<text x="597.1428571428571" y="190.80660941406677" text-anchor="middle" font-size="11" fill="#a97a28">5601</text>
<circle cx="626.4285714285714" cy="195.75823459071637" r="4.5" fill="#a97a28" />
<text x="626.4285714285714" y="185.75823459071637" text-anchor="middle" font-size="11" fill="#a97a28">5730</text>
<circle cx="655.7142857142857" cy="186.36590933797152" r="4.5" fill="#a97a28" />
<text x="655.7142857142857" y="176.36590933797152" text-anchor="middle" font-size="11" fill="#a97a28">5970</text>
<circle cx="685.0" cy="166.68116099576042" r="4.5" fill="#a97a28" />
<text x="685.0" y="156.68116099576042" text-anchor="middle" font-size="11" fill="#a97a28">6473</text>
<circle cx="714.2857142857143" cy="209.49451027285576" r="4.5" fill="#a97a28" />
<text x="714.2857142857143" y="199.49451027285576" text-anchor="middle" font-size="11" fill="#a97a28">5379</text>
<circle cx="743.5714285714286" cy="207.42037177954126" r="4.5" fill="#a97a28" />
<text x="743.5714285714286" y="197.42037177954126" text-anchor="middle" font-size="11" fill="#a97a28">5432</text>
<circle cx="772.8571428571429" cy="221.19578215023373" r="4.5" fill="#a97a28" />
<text x="772.8571428571429" y="211.19578215023373" text-anchor="middle" font-size="11" fill="#a97a28">5080</text>
<circle cx="802.1428571428571" cy="229.4532014349386" r="4.5" fill="#a97a28" />
<text x="802.1428571428571" y="219.4532014349386" text-anchor="middle" font-size="11" fill="#a97a28">4869</text>
<circle cx="831.4285714285714" cy="233.6797477986738" r="4.5" fill="#a97a28" />
<text x="831.4285714285714" y="223.6797477986738" text-anchor="middle" font-size="11" fill="#a97a28">4761</text>
<circle cx="860.7142857142857" cy="220.56962713338407" r="4.5" fill="#a97a28" />
<text x="860.7142857142857" y="210.56962713338407" text-anchor="middle" font-size="11" fill="#a97a28">5096</text>
<circle cx="890.0" cy="209.964126535493" r="4.5" fill="#a97a28" />
<text x="890.0" y="199.964126535493" text-anchor="middle" font-size="11" fill="#a97a28">5367</text>
<rect x="770" y="58" width="14" height="14" rx="3" fill="#a97a28" />
<text x="790" y="70" font-size="12" fill="#1f1a17">华南</text>
<polyline fill="none" stroke="#355c7d" stroke-width="3" points="70.0,303.26122404609197 99.28571428571428,313.7101858897706 128.57142857142856,323.2590498967279 157.85714285714286,313.2014349385803 187.14285714285714,317.5845200565279 216.42857142857142,321.6545276660506 245.71428571428572,297.74323296010436 275.0,304.78747689966303 304.2857142857143,318.9542341558865 333.57142857142856,310.38373736275685 362.85714285714283,311.205565822372 392.14285714285717,317.6627894336341 421.42857142857144,310.814218936841 450.7142857142857,304.8657462767692 480.0,305.53103598217194 509.2857142857143,314.14066746385475 538.5714285714286,315.1581693662355 567.8571428571429,317.5845200565279 597.1428571428571,322.78943363409064 626.4285714285714,313.475377758452 655.7142857142857,297.58669420589194 685.0,296.7257310577237 714.2857142857143,312.69268398738996 743.5714285714286,326.4680943580824 772.8571428571429,322.59376019132515 802.1428571428571,316.6061528427003 831.4285714285714,320.44135232090446 860.7142857142857,315.4321121861072 890.0,302.79160778345477" />
<circle cx="70.0" cy="303.26122404609197" r="4.5" fill="#355c7d" />
<text x="70.0" y="293.26122404609197" text-anchor="middle" font-size="11" fill="#355c7d">2983</text>
<circle cx="99.28571428571428" cy="313.7101858897706" r="4.5" fill="#355c7d" />
<text x="99.28571428571428" y="303.7101858897706" text-anchor="middle" font-size="11" fill="#355c7d">2716</text>
<circle cx="128.57142857142856" cy="323.2590498967279" r="4.5" fill="#355c7d" />
<text x="128.57142857142856" y="313.2590498967279" text-anchor="middle" font-size="11" fill="#355c7d">2472</text>
<circle cx="157.85714285714286" cy="313.2014349385803" r="4.5" fill="#355c7d" />
<text x="157.85714285714286" y="303.2014349385803" text-anchor="middle" font-size="11" fill="#355c7d">2729</text>
<circle cx="187.14285714285714" cy="317.5845200565279" r="4.5" fill="#355c7d" />
<text x="187.14285714285714" y="307.5845200565279" text-anchor="middle" font-size="11" fill="#355c7d">2617</text>
<circle cx="216.42857142857142" cy="321.6545276660506" r="4.5" fill="#355c7d" />
<text x="216.42857142857142" y="311.6545276660506" text-anchor="middle" font-size="11" fill="#355c7d">2513</text>
<circle cx="245.71428571428572" cy="297.74323296010436" r="4.5" fill="#355c7d" />
<text x="245.71428571428572" y="287.74323296010436" text-anchor="middle" font-size="11" fill="#355c7d">3124</text>
<circle cx="275.0" cy="304.78747689966303" r="4.5" fill="#355c7d" />
<text x="275.0" y="294.78747689966303" text-anchor="middle" font-size="11" fill="#355c7d">2944</text>
<circle cx="304.2857142857143" cy="318.9542341558865" r="4.5" fill="#355c7d" />
<text x="304.2857142857143" y="308.9542341558865" text-anchor="middle" font-size="11" fill="#355c7d">2582</text>
<circle cx="333.57142857142856" cy="310.38373736275685" r="4.5" fill="#355c7d" />
<text x="333.57142857142856" y="300.38373736275685" text-anchor="middle" font-size="11" fill="#355c7d">2801</text>
<circle cx="362.85714285714283" cy="311.205565822372" r="4.5" fill="#355c7d" />
<text x="362.85714285714283" y="301.205565822372" text-anchor="middle" font-size="11" fill="#355c7d">2780</text>
<circle cx="392.14285714285717" cy="317.6627894336341" r="4.5" fill="#355c7d" />
<text x="392.14285714285717" y="307.6627894336341" text-anchor="middle" font-size="11" fill="#355c7d">2615</text>
<circle cx="421.42857142857144" cy="310.814218936841" r="4.5" fill="#355c7d" />
<text x="421.42857142857144" y="300.814218936841" text-anchor="middle" font-size="11" fill="#355c7d">2790</text>
<circle cx="450.7142857142857" cy="304.8657462767692" r="4.5" fill="#355c7d" />
<text x="450.7142857142857" y="294.8657462767692" text-anchor="middle" font-size="11" fill="#355c7d">2942</text>
<circle cx="480.0" cy="305.53103598217194" r="4.5" fill="#355c7d" />
<text x="480.0" y="295.53103598217194" text-anchor="middle" font-size="11" fill="#355c7d">2925</text>
<circle cx="509.2857142857143" cy="314.14066746385475" r="4.5" fill="#355c7d" />
<text x="509.2857142857143" y="304.14066746385475" text-anchor="middle" font-size="11" fill="#355c7d">2705</text>
<circle cx="538.5714285714286" cy="315.1581693662355" r="4.5" fill="#355c7d" />
<text x="538.5714285714286" y="305.1581693662355" text-anchor="middle" font-size="11" fill="#355c7d">2679</text>
<circle cx="567.8571428571429" cy="317.5845200565279" r="4.5" fill="#355c7d" />
<text x="567.8571428571429" y="307.5845200565279" text-anchor="middle" font-size="11" fill="#355c7d">2617</text>
<circle cx="597.1428571428571" cy="322.78943363409064" r="4.5" fill="#355c7d" />
<text x="597.1428571428571" y="312.78943363409064" text-anchor="middle" font-size="11" fill="#355c7d">2484</text>
<circle cx="626.4285714285714" cy="313.475377758452" r="4.5" fill="#355c7d" />
<text x="626.4285714285714" y="303.475377758452" text-anchor="middle" font-size="11" fill="#355c7d">2722</text>
<circle cx="655.7142857142857" cy="297.58669420589194" r="4.5" fill="#355c7d" />
<text x="655.7142857142857" y="287.58669420589194" text-anchor="middle" font-size="11" fill="#355c7d">3128</text>
<circle cx="685.0" cy="296.7257310577237" r="4.5" fill="#355c7d" />
<text x="685.0" y="286.7257310577237" text-anchor="middle" font-size="11" fill="#355c7d">3150</text>
<circle cx="714.2857142857143" cy="312.69268398738996" r="4.5" fill="#355c7d" />
<text x="714.2857142857143" y="302.69268398738996" text-anchor="middle" font-size="11" fill="#355c7d">2742</text>
<circle cx="743.5714285714286" cy="326.4680943580824" r="4.5" fill="#355c7d" />
<text x="743.5714285714286" y="316.4680943580824" text-anchor="middle" font-size="11" fill="#355c7d">2390</text>
<circle cx="772.8571428571429" cy="322.59376019132515" r="4.5" fill="#355c7d" />
<text x="772.8571428571429" y="312.59376019132515" text-anchor="middle" font-size="11" fill="#355c7d">2489</text>
<circle cx="802.1428571428571" cy="316.6061528427003" r="4.5" fill="#355c7d" />
<text x="802.1428571428571" y="306.6061528427003" text-anchor="middle" font-size="11" fill="#355c7d">2642</text>
<circle cx="831.4285714285714" cy="320.44135232090446" r="4.5" fill="#355c7d" />
<text x="831.4285714285714" y="310.44135232090446" text-anchor="middle" font-size="11" fill="#355c7d">2544</text>
<circle cx="860.7142857142857" cy="315.4321121861072" r="4.5" fill="#355c7d" />
<text x="860.7142857142857" y="305.4321121861072" text-anchor="middle" font-size="11" fill="#355c7d">2672</text>
<circle cx="890.0" cy="302.79160778345477" r="4.5" fill="#355c7d" />
<text x="890.0" y="292.79160778345477" text-anchor="middle" font-size="11" fill="#355c7d">2995</text>
<rect x="770" y="78" width="14" height="14" rx="3" fill="#355c7d" />
<text x="790" y="90" font-size="12" fill="#1f1a17">华西</text>
</svg>